<svg width="24" height="24" viewBox="0 0 24 24" fill="none" xmlns="http://www.w3.org/2000/svg">
<g clip-path="url(#clip0_1152_1284)">
<path d="M8.03329 7.33317C8.03329 5.14144 9.80822 3.3665 12 3.3665C14.1917 3.3665 15.9666 5.14144 15.9666 7.33317C15.9666 9.52491 14.1917 11.2998 12 11.2998C9.80822 11.2998 8.03329 9.52491 8.03329 7.33317ZM3.36663 17.8332C3.36663 17.3144 3.62092 16.8083 4.16167 16.3092C4.70718 15.8057 5.49622 15.3581 6.42548 14.9859C8.28512 14.2409 10.53 13.8665 12 13.8665C13.47 13.8665 15.7148 14.2409 17.5744 14.9859C18.5037 15.3581 19.2927 15.8057 19.8382 16.3092C20.379 16.8083 20.6333 17.3144 20.6333 17.8332V20.6332H3.36663V17.8332Z" stroke="#C2CFE0" stroke-width="1.4"/>
</g>
<defs>
<clipPath id="clip0_1152_1284">
<rect width="24" height="24" fill="white"/>
</clipPath>
</defs>
</svg>
